<svg width="256" height="256" viewBox="0 0 256 256" fill="none" xmlns="http://www.w3.org/2000/svg">
  <circle cx="128" cy="128" r="112" fill="url(#orb)"/>
  <circle cx="128" cy="128" r="112" fill="url(#glow)" fill-opacity="0.34"/>
  <path d="M96 193V63H145.8C162.2 63 175.5 66.8 185.7 74.4C196.1 81.8 201.3 92.4 201.3 106.2C201.3 120.2 196.1 130.9 185.7 138.4C175.5 145.7 162.2 149.3 145.8 149.3H119.7V193H96ZM119.7 127.8H143.6C152.5 127.8 159.5 126 164.6 122.4C169.9 118.6 172.5 113.2 172.5 106.2C172.5 99.2 169.9 93.9 164.6 90.3C159.5 86.5 152.5 84.6 143.6 84.6H119.7V127.8Z" fill="#FFF7F2"/>
  <path d="M164 57L169.2 42L174.5 57L189.5 62.3L174.5 67.5L169.2 82.5L164 67.5L149 62.3L164 57Z" fill="#FFD2C4"/>
  <defs>
    <linearGradient id="orb" x1="42" y1="34" x2="214" y2="214" gradientUnits="userSpaceOnUse">
      <stop stop-color="#4DB6FF"/>
      <stop offset="0.52" stop-color="#FF5D6C"/>
      <stop offset="1" stop-color="#FF9B54"/>
    </linearGradient>
    <radialGradient id="glow" cx="0" cy="0" r="1" gradientUnits="userSpaceOnUse" gradientTransform="translate(76 64) rotate(52.5946) scale(181.748)">
      <stop stop-color="#FFFFFF" stop-opacity="0.92"/>
      <stop offset="0.38" stop-color="#FFFFFF" stop-opacity="0.14"/>
      <stop offset="1" stop-color="#FFFFFF" stop-opacity="0"/>
    </radialGradient>
  </defs>
</svg>
